<?xml version="1.0" standalone="no"?><!DOCTYPE svg PUBLIC "-//W3C//DTD SVG 1.1//EN" "http://www.w3.org/Graphics/SVG/1.1/DTD/svg11.dtd"><svg t="1714882901802" class="icon" viewBox="0 0 1024 1024" version="1.1" xmlns="http://www.w3.org/2000/svg" p-id="6266" xmlns:xlink="http://www.w3.org/1999/xlink" width="200" height="200"><path d="M832.44 316.158v120.076c0-16.58 13.44-30.02 30.018-30.02 16.58 0 30.02 13.44 30.02 30.02v74.752c0 165.324-127.136 314.994-381.405 449.014C258.357 825.98 132 676.309 132 510.986v-312.89L512.239 64l380.238 134.096v118.062c0 16.58-13.44 30.019-30.019 30.019s-30.019-13.44-30.019-30.019z m0 194.988V247.678L512.238 134.763 192.038 247.678v263.468c0 139.21 106.406 265.24 319.219 378.09 214.122-112.85 321.182-238.88 321.182-378.09z m-177.467 15.422h-226.9c0.977 34.592 10.455 61.317 28.435 80.177 17.98 18.86 43.094 28.289 75.34 28.289 36.352 0 69.673-11.628 99.966-34.885v51.302c-28.534 20.13-66.35 30.194-113.45 30.194-46.905 0-83.5-14.853-109.786-44.559-26.286-29.706-39.43-70.943-39.43-123.71 0-49.641 14.414-90.584 43.24-122.831 28.828-32.247 64.64-48.37 107.441-48.37 42.41 0 75.536 13.631 99.379 40.894 23.843 27.264 35.765 65.422 35.765 114.476v29.023z m-57.458-46.025c-0.196-29.316-7.134-51.986-20.814-68.012-13.68-16.026-32.93-24.038-57.751-24.038-22.866 0-42.654 8.501-59.364 25.504-16.71 17.003-27.214 39.185-31.514 66.546h169.443z" fill="#d81e06" p-id="6267"></path></svg>